<svg xmlns="http://www.w3.org/2000/svg" xmlns:xlink="http://www.w3.org/1999/xlink" viewBox="0 0 800 380.82"><defs><clipPath id="acfa418c-3061-4a1f-b9d1-443be877058e"><path d="M599.42,16.26c-25,10.81-56.52,14.65-79.85,33.4C502.93,63,495.83,91.94,493,109c-1.32,7.92-.31,7.88,3.87.12a98.28,98.28,0,0,1,27.49-31.81c26.48-20,22.48-39.32,82-54.14-17,9-56.73,39-81.53,63.94-9.44,9.48-21.82,27.5-34.39,62.31-6.38,17.69-19.86,28.55-32.11,35-11.82,6.25-12.64,7.31.69,2.44,23.4-8.56,58-28.87,82.78-77.09,13.45-26.19,36.18-69.64,72.73-84.7,35.3-13.64,72.5-.4,87.37,23.12a69.12,69.12,0,0,1,8.9,32.21l4.92,2.29.85-52.43a96.45,96.45,0,0,0-13.72-11.11c-13.12-8.79-32-13-51.64-13-17.85,0-36.35,3.47-51.75,10.13" fill="none"/></clipPath><linearGradient id="b119f13d-e592-4674-a275-2846fab73dcf" x1="-737.77" y1="1377.42" x2="-731.86" y2="1377.42" gradientTransform="translate(-35931.93 68523.1) rotate(180) scale(49.68)" gradientUnits="userSpaceOnUse"><stop offset="0" stop-color="#a6ce39"/><stop offset="1" stop-color="#487759"/></linearGradient><clipPath id="e1bf6bce-ee41-4540-9aa6-5e43c87d2b7d"><path d="M335.27,62.92c-17.95,46.49,1.75,106,65.57,117.75,27.76,4.79,73.66-1.82,78-42.16,3.25-30.39-29.44-44.85-59.52-42.54s-58.19,21.28-52,40.36c2.76,8.5,24.13,21.12,54.95,13.17a37.25,37.25,0,0,1-7.57,3.37c-11.58,4.06-34.22,8.12-52.44-11.38-20.19-21.61-19.86-59.25-1.09-85Z" fill="none"/></clipPath><linearGradient id="e2ec2943-b857-4e6f-8a2b-900e91f26be8" x1="-734.04" y1="1325.84" x2="-728.13" y2="1325.84" gradientTransform="translate(40493.8 22237.79) rotate(90) scale(30.24)" gradientUnits="userSpaceOnUse"><stop offset="0" stop-color="#a6ce39"/><stop offset="0.77" stop-color="#a72c32"/></linearGradient></defs><g id="aaa94e2b-056f-44bd-bac6-e0bc8b6b96af" data-name="Layer 2"><g id="ff87eb93-7afb-4a13-9888-52c0db7fd21c" data-name="Layer 1"><path d="M526.41,36.73a56.48,56.48,0,0,0-11.3,7.14c-6.76,5.53-11.9,12.75-15.9,20.53-27.33-28.53-58.14-43.78-101.09-33C346.94,44.63,332.87,110,362.26,141.5c25.91,27.72,60.77,7.8,60,8-30.81,7.94-52.19-4.67-55-13.17-6.21-19.08,21.94-38,52-40.36s62.77,12.15,59.52,42.54c-4.3,40.34-50.2,47-78,42.16-82.76-15.29-91.33-110.78-39.79-154.13C408.11-13,474.5-7.29,526.41,36.73m-36,112.64C503,114.55,515.35,96.54,524.8,87.05c24.79-24.92,64.52-55,81.51-63.93-59.46,14.82-55.48,34.18-81.95,54.14a98.16,98.16,0,0,0-27.49,31.81c-4.18,7.76-5.19,7.8-3.87-.12,2.83-17,9.94-45.92,26.57-59.29,23.33-18.75,54.87-22.59,79.85-33.4,32.38-14,78.34-13.91,103.4,2.88,69.15,46.35,39.42,147.42-43.08,160.2-50.38,7.8-83.5-22.9-114.66-60.4q1.54-2.82,3.06-5.77c4.55-8.87,9.48-19.92,15.75-28.44,29.46,41.93,72.37,64.38,108.33,53.89,32.82-7.84,50.31-53.69,29.65-90.45C687,24.65,649.79,11.41,614.49,25.05c-36.56,15.06-59.28,58.51-72.73,84.7C517,158,482.37,178.27,459,186.83c-13.33,4.88-12.51,3.82-.69-2.43,12.24-6.48,25.73-17.34,32.12-35" fill="#a4cd39"/><g clip-path="url(#acfa418c-3061-4a1f-b9d1-443be877058e)"><rect x="445.65" y="6.13" width="270.88" height="185.58" fill="url(#b119f13d-e592-4674-a275-2846fab73dcf)"/></g><g clip-path="url(#e1bf6bce-ee41-4540-9aa6-5e43c87d2b7d)"><rect x="300.24" y="32.25" width="198.89" height="177.5" transform="translate(-17.28 143.99) rotate(-20)" fill="url(#e2ec2943-b857-4e6f-8a2b-900e91f26be8)"/></g><path d="M17.34,174.78a40.08,40.08,0,0,0,1.2,4.27L27.37,205a16.57,16.57,0,0,0,1.77,4H23.05a7.16,7.16,0,0,0-.34-1.72l-3.36-9.84H7.7L3.87,208.33a3.53,3.53,0,0,0-.08.4l-.06.27H0l11.41-29.95a6.31,6.31,0,0,1,.76-1.68,4.94,4.94,0,0,1,.93-1.11,4.45,4.45,0,0,1,1.1-.68,6.18,6.18,0,0,1,1.08-.38l1.1-.22C16.83,174.9,17.14,174.83,17.34,174.78ZM18.49,195l-4.88-14.32L8.54,195Z" fill="#a72c32"/><path d="M61.52,198.11a11,11,0,0,1-3.42,8.31q-3.42,3.29-9.38,3.29a21.79,21.79,0,0,1-3.9-.31,11.51,11.51,0,0,1-3.25-1.08,7.8,7.8,0,0,1-2.57-2,9.65,9.65,0,0,1-1.68-3.23,16.08,16.08,0,0,1-.72-4.56q-.24-9.56-.24-16.24a20.91,20.91,0,0,0-.12-2.41,7,7,0,0,0-.32-1.51,8.75,8.75,0,0,0-.43-.92,5.5,5.5,0,0,0-.43-.68l.34-.85,1.13-.32a8.93,8.93,0,0,1,2.35-.32,6.61,6.61,0,0,1,2.85.59q-.24,6.22-.24,22a11.87,11.87,0,0,0,.52,3.71A7,7,0,0,0,43.33,204a6.53,6.53,0,0,0,1.87,1.44,7.27,7.27,0,0,0,2,.7,11.21,11.21,0,0,0,1.94.16,9.71,9.71,0,0,0,6.17-1.95A6.49,6.49,0,0,0,58,199.6q.19,0,.19-17.44,0-3.89-1.3-5.42l.35-.85a4.45,4.45,0,0,1,2.52-.59,3.84,3.84,0,0,1,2.26.54Q61.52,186.66,61.52,198.11Z" fill="#a72c32"/><path d="M79.85,209.66a10.61,10.61,0,0,1-5.75-1.56c-1.66-1-2.49-2.21-2.49-3.52a3.18,3.18,0,0,1,.54-1.66c.21.74,1.12,1.47,2.72,2.16a11.82,11.82,0,0,0,4.76,1,11.27,11.27,0,0,0,2.24-.22,7.43,7.43,0,0,0,2-.73,3.75,3.75,0,0,0,1.5-1.43,4.36,4.36,0,0,0,.55-2.23,4.71,4.71,0,0,0-.79-2.59,8.76,8.76,0,0,0-2-2.21c-.83-.64-1.74-1.29-2.75-1.95s-2-1.34-3-2.05a24.08,24.08,0,0,1-2.76-2.25,9.88,9.88,0,0,1-2-2.81,7.93,7.93,0,0,1-.78-3.49,9.07,9.07,0,0,1,.6-3.24,9.36,9.36,0,0,1,1.73-2.87A8.17,8.17,0,0,1,77,176a10.08,10.08,0,0,1,4-.78,14.77,14.77,0,0,1,3.62.44,14.08,14.08,0,0,1,2.48.82c.5.26,1.09.59,1.77,1a6.58,6.58,0,0,1,.24,1.66,7.86,7.86,0,0,1-.24,2.11,3.5,3.5,0,0,1-.85,1.69l-1-.19a6.46,6.46,0,0,0-1.8-2.82,7.33,7.33,0,0,0-2.49-1.58,7,7,0,0,0-2.33-.43A5.45,5.45,0,0,0,77.1,179a3.7,3.7,0,0,0-1.49,3.13,4.39,4.39,0,0,0,.83,2.53,9,9,0,0,0,2.16,2.16c.88.64,1.86,1.28,2.94,1.94s2.15,1.34,3.23,2.09a23.91,23.91,0,0,1,2.93,2.35,10.07,10.07,0,0,1,2.16,3,9.15,9.15,0,0,1-2.21,10.62A11.06,11.06,0,0,1,79.85,209.66Z" fill="#a72c32"/><path d="M122.19,175.64a4.22,4.22,0,0,1,1,2.13,7.92,7.92,0,0,1,.14,2.31,3.39,3.39,0,0,1-.33,1.3h-1a2.59,2.59,0,0,0-1.61-1.91,7.82,7.82,0,0,0-3.66-.76H112.9s0,.84,0,2.42,0,3.51-.06,5.76,0,4.62-.06,7.12,0,4.93,0,7.28,0,4.19.06,5.5c0,.25.1,1,.29,2.21h-5.47v-.82c0-6.51.06-12.43,0-17.72l0-7.93a22.87,22.87,0,0,0-.22-3.82h-3.85a7.89,7.89,0,0,0-3.67.76,2.6,2.6,0,0,0-1.6,1.91h-1a3.21,3.21,0,0,1-.33-1.3,8,8,0,0,1,.15-2.31,4.31,4.31,0,0,1,1-2.13l6.92.3h10.2Z" fill="#a72c32"/><path d="M138,209H132.5v-.82q0-1.55,0-5.94t0-6.61c0-1,0-2.35,0-4.12s0-3.13,0-4.1,0-2.12-.06-3.47-.09-2.41-.18-3.2a15.69,15.69,0,0,0-.43-2.29,4.26,4.26,0,0,0-.73-1.65l.34-.86,9.62-.25a17.05,17.05,0,0,1,3.08.27,12,12,0,0,1,3,1,9,9,0,0,1,2.58,1.82,8.07,8.07,0,0,1,1.76,2.94,11.84,11.84,0,0,1,.69,4.19,9.61,9.61,0,0,1-1.89,5.85,10.66,10.66,0,0,1-5,3.74q.65.33,5.77,6.68a85.62,85.62,0,0,0,5.79,6.84h-6.8a21.65,21.65,0,0,0-1.85-3c-.81-1.13-1.66-2.24-2.56-3.3s-1.85-2.15-2.83-3.28-1.87-2.12-2.64-3a13.23,13.23,0,0,1-2.68-.29Q137.74,207.24,138,209Zm2.7-15.06a7.11,7.11,0,0,0,5-1.92,6.56,6.56,0,0,0,2.05-5,11,11,0,0,0-.7-4.06,6.7,6.7,0,0,0-1.83-2.7,7.87,7.87,0,0,0-2.36-1.39,6.65,6.65,0,0,0-2.5-.39l-2.72.1q-.15,1.81-.15,13.42v1.49A7.59,7.59,0,0,0,140.69,193.94Z" fill="#a72c32"/><path d="M178.45,174.78a38.36,38.36,0,0,0,1.21,4.27L188.48,205a16.57,16.57,0,0,0,1.77,4h-6.08a7.6,7.6,0,0,0-.35-1.72l-3.35-9.84H168.81L165,208.33c0,.12-.06.25-.09.4a1.1,1.1,0,0,1-.06.27h-3.73l11.41-29.95a6.65,6.65,0,0,1,.76-1.68,4.94,4.94,0,0,1,.93-1.11,4.33,4.33,0,0,1,1.11-.68,6.12,6.12,0,0,1,1.07-.38c.3-.07.66-.14,1.11-.22S178.26,174.83,178.45,174.78ZM179.61,195l-4.88-14.32L169.65,195Z" fill="#a72c32"/><path d="M215.31,209H198.78q.09-3.34.1-26.74a20.39,20.39,0,0,0-.13-2.4,7.35,7.35,0,0,0-.31-1.51c-.14-.33-.27-.65-.42-.93a3.82,3.82,0,0,0-.44-.68l.34-.85,1.13-.32a8.82,8.82,0,0,1,2.35-.32,6.52,6.52,0,0,1,2.85.59q-.5,11.28-.49,19.89,0,7.76.14,10.5h5.79a7.67,7.67,0,0,0,3.59-.75,2.91,2.91,0,0,0,1.69-1.91h.95a3.92,3.92,0,0,1,.33,2.64A4.52,4.52,0,0,1,215.31,209Z" fill="#a72c32"/><path d="M230.83,209h-5.55q.1-3.34.1-26.74a20.61,20.61,0,0,0-.12-2.4,6.64,6.64,0,0,0-.32-1.51,8.94,8.94,0,0,0-.42-.93,3.34,3.34,0,0,0-.44-.68l.34-.85,1.13-.32a8.9,8.9,0,0,1,2.36-.32,6.47,6.47,0,0,1,2.84.59q-.5,11.28-.49,19.89Q230.26,207.84,230.83,209Z" fill="#a72c32"/><path d="M256,174.78a37.78,37.78,0,0,0,1.2,4.27L266.06,205a16.93,16.93,0,0,0,1.76,4h-6.08a7.16,7.16,0,0,0-.34-1.72L258,197.44H246.39l-3.83,10.89a3.53,3.53,0,0,0-.08.4,1.57,1.57,0,0,1-.07.27h-3.72l11.4-29.95a7,7,0,0,1,.76-1.68,4.94,4.94,0,0,1,.93-1.11,4.33,4.33,0,0,1,1.11-.68,6.12,6.12,0,0,1,1.07-.38c.3-.07.67-.14,1.11-.22S255.83,174.83,256,174.78ZM257.18,195l-4.88-14.32L247.22,195Z" fill="#a72c32"/><path d="M300,198.21q.09,0,.09-16.05,0-3.89-1.29-5.42l.34-.85a4.42,4.42,0,0,1,2.5-.59,3.87,3.87,0,0,1,2.28.54q-.62,12.87-.61,23.57,0,5.66.24,9.59h-2.74l-19.11-21.85-.93-1.28a10.15,10.15,0,0,1-1.13-1.84,12.33,12.33,0,0,1,.17,2.21c0,.82,0,2-.06,3.7s-.06,2.9-.06,3.73a150,150,0,0,0,.51,15.33H276.6v-.82q.06-6.51.07-17.92v-8.1a14.75,14.75,0,0,0-.27-3.19,5.93,5.93,0,0,0-1.06-2.23l.37-.85a4.89,4.89,0,0,1,3-.49l19.78,22.76a7.73,7.73,0,0,1,1.28,2l.59,1.25-.17-1.25A14.22,14.22,0,0,1,300,198.21Z" fill="#a72c32"/><path d="M81,327.13a29.94,29.94,0,0,1-16.23-4.4c-4.68-2.93-7-6.23-7-9.93a9,9,0,0,1,1.52-4.7q.9,3.18,7.68,6.12a33.56,33.56,0,0,0,13.42,2.94,30.89,30.89,0,0,0,6.33-.62,21.2,21.2,0,0,0,5.61-2,10.67,10.67,0,0,0,4.22-4.05,12.11,12.11,0,0,0,1.56-6.3,13.38,13.38,0,0,0-2.22-7.29,24.64,24.64,0,0,0-5.7-6.23q-3.51-2.73-7.75-5.5c-2.84-1.85-5.69-3.77-8.55-5.79A64.77,64.77,0,0,1,66.1,273a27.32,27.32,0,0,1-5.7-7.92,22.2,22.2,0,0,1-2.22-9.83,25.37,25.37,0,0,1,1.7-9.16,26.24,26.24,0,0,1,4.88-8.1,22.9,22.9,0,0,1,8.3-5.85,28.22,28.22,0,0,1,11.34-2.21,41.09,41.09,0,0,1,10.21,1.24,36.64,36.64,0,0,1,7,2.32c1.41.71,3.08,1.65,5,2.8a19.44,19.44,0,0,1,.66,4.71,21.59,21.59,0,0,1-.66,6,10,10,0,0,1-2.42,4.77l-2.7-.55a18.15,18.15,0,0,0-5.09-8,20.77,20.77,0,0,0-7-4.46,19.87,19.87,0,0,0-6.58-1.21,15.43,15.43,0,0,0-9.54,3.18A10.46,10.46,0,0,0,69,249.56a12.32,12.32,0,0,0,2.36,7.13,25.47,25.47,0,0,0,6.09,6.08q3.74,2.7,8.3,5.47t9.1,5.88a70.22,70.22,0,0,1,8.27,6.64,28.09,28.09,0,0,1,6.09,8.52A24.79,24.79,0,0,1,111.6,300,25.14,25.14,0,0,1,103,319.24Q94.44,327.13,81,327.13Z" fill="#487759"/><path d="M139.91,250.18c0-2.12-.08-4-.24-5.71a33.77,33.77,0,0,0-.59-4,19.14,19.14,0,0,0-.83-2.7,8.33,8.33,0,0,0-1-1.87,12.87,12.87,0,0,1-1-1.49l1-2.42h21.31l24.22-.41a10.45,10.45,0,0,1,2.32,5.22,24.62,24.62,0,0,1,.52,6.64c-.14,2-.48,3.36-1,3.91h-2.63c-.46-2.16-2.07-4-4.84-5.43a23.39,23.39,0,0,0-10.1-2.39l-12-.41q-1,16.81-1,34.6h22.28a10.15,10.15,0,0,0,3.25-.45,2.89,2.89,0,0,0,1.59-.94l.35-.48c.18,0,.28.94.28,2.84a8.21,8.21,0,0,1-.49,2.93,7.61,7.61,0,0,1-1.11,2.08,5.09,5.09,0,0,1-1.86,1.39,17.18,17.18,0,0,1-2.12.86,11.27,11.27,0,0,1-2.49.42c-1.08.09-1.86.14-2.35.14H169l-3.49-.08-6.3-.13c-2-.05-3.75-.05-5.36,0q-.13,14,.41,33.21a2,2,0,0,0,.28.83h26.92a10.15,10.15,0,0,0,3.25-.45,3.41,3.41,0,0,0,1.66-.93l.35-.48c.18,0,.27.94.27,2.83a9.24,9.24,0,0,1-.55,3.36,4.91,4.91,0,0,1-1.69,2.24,15.29,15.29,0,0,1-2.22,1.36,9.16,9.16,0,0,1-2.8.72c-1.16.14-2.06.22-2.74.25s-1.57,0-2.73,0H139.77l.14-9.62Z" fill="#487759"/><path d="M217.14,250.18c0-2.12-.08-4-.24-5.71a30.06,30.06,0,0,0-.59-4,17.92,17.92,0,0,0-.83-2.7,7.59,7.59,0,0,0-1-1.87,12.86,12.86,0,0,1-1-1.49l1-2.42h21.31l24.22-.41a10.54,10.54,0,0,1,2.32,5.22,25,25,0,0,1,.51,6.64c-.13,2-.48,3.36-1,3.91h-2.62c-.47-2.16-2.08-4-4.85-5.43a23.32,23.32,0,0,0-10.1-2.39l-12-.41q-1,16.81-1,34.6h22.28a10.11,10.11,0,0,0,3.25-.45,3,3,0,0,0,1.6-.94l.34-.48c.19,0,.28.94.28,2.84a8,8,0,0,1-.49,2.93,7.89,7.89,0,0,1-1.1,2.08,5.22,5.22,0,0,1-1.87,1.39,17.13,17.13,0,0,1-2.11.86,11.49,11.49,0,0,1-2.49.42c-1.09.09-1.87.14-2.35.14h-2.32l-3.5-.08-6.29-.13c-2-.05-3.75-.05-5.37,0q-.13,14,.42,33.21a2.14,2.14,0,0,0,.27.83h26.92a10.22,10.22,0,0,0,3.26-.45,3.42,3.42,0,0,0,1.65-.93l.35-.48c.19,0,.28.94.28,2.83a9.46,9.46,0,0,1-.55,3.36,4.92,4.92,0,0,1-1.7,2.24,14.7,14.7,0,0,1-2.21,1.36,9.31,9.31,0,0,1-2.81.72c-1.15.14-2.06.22-2.73.25s-1.58,0-2.74,0H217l.13-9.62Z" fill="#487759"/><path d="M324.13,325.26h-30q.13-2.43.13-6.64V251.28q0-3.66-.13-6.05a28.29,28.29,0,0,0-1-5.57,14.4,14.4,0,0,0-2.52-5.26l1-2.42,32-.69a46.46,46.46,0,0,1,13.07,1.56,41,41,0,0,1,11.87,5.33,40.49,40.49,0,0,1,9.69,8.82,39.7,39.7,0,0,1,6.5,12.59,52.58,52.58,0,0,1,2.39,16.2A60.39,60.39,0,0,1,364,295.3,49.07,49.07,0,0,1,355.44,311a38.86,38.86,0,0,1-13.6,10.44A41.07,41.07,0,0,1,324.13,325.26Zm1.73-7.54a19.39,19.39,0,0,0,9.31-2.5,27.94,27.94,0,0,0,8.23-6.88,35.43,35.43,0,0,0,5.92-11,44.44,44.44,0,0,0,2.35-14.19,52.9,52.9,0,0,0-4.46-22.49,38.8,38.8,0,0,0-12.63-16,27.5,27.5,0,0,0-17.51-5.43l-8,.27q0,.49-.34,20.07t-.35,30.51q0,16,.41,27.62Z" fill="#487759"/><path d="M398.79,325.26l.14-9.62V250.18c0-2.12-.08-4-.24-5.71a33.77,33.77,0,0,0-.59-4,19.14,19.14,0,0,0-.83-2.7,7.94,7.94,0,0,0-1-1.87,11.72,11.72,0,0,1-1-1.49l1-2.42,25.12-.69a36.5,36.5,0,0,1,12.11,1.49,22.33,22.33,0,0,1,8.61,4.67,21.36,21.36,0,0,1,4.92,6.6,17.77,17.77,0,0,1,1.69,7.52A19.47,19.47,0,0,1,445.05,263,31.77,31.77,0,0,1,435,272a36,36,0,0,1,7.62,3.18,29.6,29.6,0,0,1,6.26,4.84,20.15,20.15,0,0,1,4.46,7.13,26.78,26.78,0,0,1,1.58,9.48q0,13.08-9.13,20.87t-24.56,7.78ZM419.06,277l-5.95-.28q-.27,27.75.28,41.8h9.06q9.9,0,14.88-5a16.6,16.6,0,0,0,5-12.14q0-11.56-6.44-17.75T419.06,277Zm1.73-6.85a50.43,50.43,0,0,1,9.49.9,20.58,20.58,0,0,0,6.37-15.5q0-7.62-4.54-12.08a15,15,0,0,0-11.32-4.32l-7,.14c0,6-.05,11.1-.14,15.15q-.42,15.36-.42,15.71Z" fill="#487759"/><path d="M517.11,228.73a114,114,0,0,0,3.39,12l24.91,73.14a46.55,46.55,0,0,0,5,11.35H533.23a20.52,20.52,0,0,0-1-4.84l-9.47-27.75H489.92l-10.8,30.72a11.12,11.12,0,0,0-.24,1.11,4.26,4.26,0,0,1-.17.76H468.19l32.18-84.49a18.78,18.78,0,0,1,2.14-4.74,14.09,14.09,0,0,1,2.63-3.15,13.17,13.17,0,0,1,3.11-1.9,16.6,16.6,0,0,1,3.05-1.07c.83-.18,1.87-.39,3.11-.63S516.56,228.87,517.11,228.73Zm3.26,57.16-13.78-40.42-14.32,40.42Z" fill="#487759"/><path d="M639.81,294.81q.27,0,.28-45.25,0-11-3.67-15.3l1-2.42a12.71,12.71,0,0,1,7.05-1.66q4.37,0,6.44,1.53-1.74,36.33-1.73,66.49,0,16,.69,27.06h-7.75l-53.9-61.66L585.56,260a29.66,29.66,0,0,1-3.19-5.19,35.51,35.51,0,0,1,.49,6.22q0,3.46-.17,10.45c-.12,4.66-.17,8.17-.17,10.52q0,31.55,1.45,43.25H573.73V323q.21-18.41.2-50.58V249.56a41.78,41.78,0,0,0-.76-9,16.84,16.84,0,0,0-3-6.27l1-2.42q5.46-2.21,8.44-1.38l55.84,64.21a23.49,23.49,0,0,1,3.6,5.54l1.66,3.53-.49-3.53A43.23,43.23,0,0,1,639.81,294.81Z" fill="#487759"/><path d="M703.59,325.26H687.94q.28-9.4.29-75.43a54.79,54.79,0,0,0-.36-6.78,17.94,17.94,0,0,0-.9-4.25,24.72,24.72,0,0,0-1.17-2.63,8.89,8.89,0,0,0-1.25-1.91l1-2.42,3.19-.89a24.4,24.4,0,0,1,6.64-.91,18.63,18.63,0,0,1,8,1.67q-1,23.58-1.39,44.21l29.34-32.32a9.44,9.44,0,0,0,3.11-6.63,6.05,6.05,0,0,0-.69-2.71l1-2.42a26.55,26.55,0,0,1,9.62-1.52c4.24,0,6.9.46,8,1.39a56.83,56.83,0,0,1-5.16,8q-2.46,3.08-9.93,10.76T715,273q2.63,3.46,13.87,18.61t18.24,24.29q7,9.13,7.74,9.41H735.14q-6.64-10.59-15.3-23.08a223.23,223.23,0,0,0-14.59-19.27l-3.26-4v8.92Q702,322,703.59,325.26Z" fill="#487759"/><path d="M472.68,380.15h-5.49v-.81c0-1,0-3,0-5.94s0-5.14,0-6.61c0-1,0-2.36,0-4.12s0-3.13,0-4.1,0-2.12,0-3.47-.1-2.41-.19-3.2a15.69,15.69,0,0,0-.43-2.29,4.23,4.23,0,0,0-.74-1.66l.35-.85,9-.3h.56a17.08,17.08,0,0,1,3.09.27,11.65,11.65,0,0,1,3,1,9,9,0,0,1,2.58,1.85,8.39,8.39,0,0,1,1.76,2.94,11.93,11.93,0,0,1,.69,4.2,9.55,9.55,0,0,1-1.63,5.45,10.92,10.92,0,0,1-4.38,3.76,13.6,13.6,0,0,1-6,1.34,12.42,12.42,0,0,1-2.67-.3Q472.43,378.39,472.68,380.15Zm2.7-15a7.11,7.11,0,0,0,5-1.92,6.56,6.56,0,0,0,2-5,10.78,10.78,0,0,0-.69-4,6.69,6.69,0,0,0-1.82-2.7,7.74,7.74,0,0,0-2.36-1.42,6.67,6.67,0,0,0-2.51-.4l-2.72.1q-.14,1.81-.14,13.41v1.5A7.53,7.53,0,0,0,475.38,365.1Z" fill="#a72c32"/><path d="M507,345.94a38.83,38.83,0,0,0,1.19,4.27L517,376.13a16.4,16.4,0,0,0,1.77,4h-6.08a7.71,7.71,0,0,0-.34-1.71L509,368.61H497.32l-3.82,10.88c0,.12-.06.25-.09.4a.88.88,0,0,1-.06.26h-3.72L501,350.21a6.84,6.84,0,0,1,.76-1.68,5,5,0,0,1,.93-1.12,4.74,4.74,0,0,1,1.1-.67,6.48,6.48,0,0,1,1.08-.38l1.11-.22Zm1.15,20.26-4.88-14.32-5.08,14.32Z" fill="#a72c32"/><path d="M532.83,380.15h-5.49v-.81c0-1,0-3,0-5.94s0-5.14,0-6.61c0-1,0-2.36,0-4.12s0-3.13,0-4.1,0-2.12,0-3.47-.1-2.41-.19-3.2a15.69,15.69,0,0,0-.43-2.29A4.55,4.55,0,0,0,526,348l.34-.85,9.61-.25a17.08,17.08,0,0,1,3.09.27,11.75,11.75,0,0,1,3,1,9,9,0,0,1,2.58,1.82,8.25,8.25,0,0,1,1.76,2.93,11.93,11.93,0,0,1,.69,4.2,9.61,9.61,0,0,1-1.89,5.85,10.75,10.75,0,0,1-5,3.74q.63.33,5.76,6.67a87.47,87.47,0,0,0,5.78,6.84h-6.79a23.29,23.29,0,0,0-1.85-3c-.81-1.13-1.66-2.24-2.56-3.3s-1.85-2.16-2.83-3.28l-2.64-3a12.42,12.42,0,0,1-2.67-.3Q532.58,378.39,532.83,380.15Zm2.7-15a7.11,7.11,0,0,0,5-1.92,6.56,6.56,0,0,0,2-5,10.83,10.83,0,0,0-.7-4.06,6.5,6.5,0,0,0-1.82-2.7,7.62,7.62,0,0,0-2.35-1.39,6.76,6.76,0,0,0-2.51-.39l-2.72.1q-.13,1.81-.14,13.41v1.5A7.53,7.53,0,0,0,535.53,365.1Z" fill="#a72c32"/><path d="M580.93,346.8a4.21,4.21,0,0,1,1,2.14,7.84,7.84,0,0,1,.14,2.3,3.45,3.45,0,0,1-.33,1.3h-1a2.59,2.59,0,0,0-1.61-1.91,7.82,7.82,0,0,0-3.66-.76h-3.85s0,.84,0,2.42,0,3.51-.06,5.76,0,4.62-.06,7.12,0,4.93,0,7.28,0,4.19.06,5.5c0,.24.1,1,.29,2.2h-5.47v-.81q.07-9.78,0-17.73l0-7.92a24.33,24.33,0,0,0-.21-3.82H562.3a7.83,7.83,0,0,0-3.67.76,2.59,2.59,0,0,0-1.61,1.91h-1a3.26,3.26,0,0,1-.33-1.3,7.88,7.88,0,0,1,.15-2.3,4.31,4.31,0,0,1,1-2.14l6.91.3H574Z" fill="#a72c32"/><path d="M614.85,369.37q.1,0,.11-16.05,0-3.9-1.31-5.41l.35-.86a4.4,4.4,0,0,1,2.5-.59,4,4,0,0,1,2.28.53q-.62,12.88-.62,23.58c0,3.77.09,7,.25,9.58h-2.74L596.56,358.3l-.93-1.27a9.58,9.58,0,0,1-1.13-1.84,13.29,13.29,0,0,1,.17,2.2c0,.82,0,2.06-.06,3.71s-.06,2.89-.06,3.73a149.79,149.79,0,0,0,.51,15.32h-3.63v-.81q.08-6.51.08-17.92v-8.1a14.92,14.92,0,0,0-.27-3.2,5.91,5.91,0,0,0-1-2.21l.36-.86a5,5,0,0,1,3-.5l19.79,22.77a7.73,7.73,0,0,1,1.28,2l.59,1.24-.17-1.24A14.6,14.6,0,0,1,614.85,369.37Z" fill="#a72c32"/><path d="M632.42,353.54c0-.75,0-1.42-.09-2a12,12,0,0,0-.21-1.42,7.28,7.28,0,0,0-.29-1,3.25,3.25,0,0,0-.36-.66,4.43,4.43,0,0,1-.35-.53l.34-.85H639l8.59-.15a3.84,3.84,0,0,1,.82,1.85,8.88,8.88,0,0,1,.18,2.36,2.28,2.28,0,0,1-.37,1.38h-.93a3,3,0,0,0-1.71-1.93,8.4,8.4,0,0,0-3.58-.84l-4.27-.15q-.35,6-.35,12.26h7.9a3.73,3.73,0,0,0,1.15-.15,1.16,1.16,0,0,0,.57-.34l.12-.17c.07,0,.1.34.1,1a3,3,0,0,1-.17,1,3,3,0,0,1-.4.74,1.86,1.86,0,0,1-.66.49,4.84,4.84,0,0,1-.75.3,3.75,3.75,0,0,1-.88.15c-.38,0-.66.05-.83.05h-.82l-1.24,0-2.23-.05h-1.91q0,5,.15,11.78a.82.82,0,0,0,.1.29h9.54a3.47,3.47,0,0,0,1.15-.16,1.22,1.22,0,0,0,.59-.33l.12-.17c.07,0,.1.34.1,1a3.27,3.27,0,0,1-.19,1.19,1.76,1.76,0,0,1-.61.8,4.45,4.45,0,0,1-.78.48,3.29,3.29,0,0,1-1,.26l-1,.08H632.37l0-3.4Z" fill="#a72c32"/><path d="M665.63,380.15h-5.49v-.81c0-1,0-3,0-5.94s0-5.14,0-6.61c0-1,0-2.36,0-4.12s0-3.13,0-4.1,0-2.12,0-3.47-.1-2.41-.19-3.2a15.69,15.69,0,0,0-.43-2.29,4.38,4.38,0,0,0-.73-1.66l.34-.85,9.61-.25a17.08,17.08,0,0,1,3.09.27,11.75,11.75,0,0,1,3,1,9,9,0,0,1,2.58,1.82,8.25,8.25,0,0,1,1.76,2.93,11.93,11.93,0,0,1,.69,4.2A9.61,9.61,0,0,1,678,362.9a10.73,10.73,0,0,1-5,3.74q.64.33,5.76,6.67a88.77,88.77,0,0,0,5.79,6.84h-6.79a22.22,22.22,0,0,0-1.85-3c-.81-1.13-1.66-2.24-2.56-3.3s-1.85-2.16-2.83-3.28-1.87-2.12-2.64-3a12.42,12.42,0,0,1-2.67-.3Q665.38,378.39,665.63,380.15Zm2.7-15a7.11,7.11,0,0,0,5-1.92,6.56,6.56,0,0,0,2-5,10.82,10.82,0,0,0-.71-4.06,6.5,6.5,0,0,0-1.82-2.7,7.74,7.74,0,0,0-2.35-1.39,6.76,6.76,0,0,0-2.51-.39l-2.72.1q-.13,1.81-.14,13.41v1.5A7.53,7.53,0,0,0,668.33,365.1Z" fill="#a72c32"/><path d="M698.92,380.82a10.59,10.59,0,0,1-5.75-1.56c-1.66-1-2.49-2.21-2.49-3.52a3.24,3.24,0,0,1,.54-1.67c.21.75,1.12,1.48,2.72,2.17a11.83,11.83,0,0,0,4.76,1,10.67,10.67,0,0,0,2.25-.22,7.47,7.47,0,0,0,2-.72,3.75,3.75,0,0,0,1.5-1.43,4.29,4.29,0,0,0,.55-2.23,4.78,4.78,0,0,0-.78-2.59,8.82,8.82,0,0,0-2-2.21c-.83-.65-1.74-1.3-2.75-1.95s-2-1.34-3-2.05a22.24,22.24,0,0,1-2.75-2.26,9.73,9.73,0,0,1-2-2.8,7.93,7.93,0,0,1-.78-3.49,9.3,9.3,0,0,1,2.33-6.11,8.17,8.17,0,0,1,2.94-2.08,10.08,10.08,0,0,1,4-.78,14.3,14.3,0,0,1,3.62.44,14.08,14.08,0,0,1,2.48.82c.5.26,1.09.58,1.78,1a7.71,7.71,0,0,1,.23,1.66,8,8,0,0,1-.23,2.12,3.6,3.6,0,0,1-.86,1.68l-1-.19a6.46,6.46,0,0,0-1.8-2.82,7.23,7.23,0,0,0-2.49-1.58,7,7,0,0,0-2.33-.43,5.4,5.4,0,0,0-3.38,1.13,3.69,3.69,0,0,0-1.5,3.13,4.32,4.32,0,0,0,.83,2.53,9.22,9.22,0,0,0,2.16,2.16c.88.64,1.86,1.28,2.94,1.94s2.16,1.35,3.23,2.08a23.91,23.91,0,0,1,2.93,2.35,10.11,10.11,0,0,1,2.16,3A9.15,9.15,0,0,1,706.72,378,11,11,0,0,1,698.92,380.82Z" fill="#a72c32"/><path d="M746.93,366.89c0,8.07.18,12.5.54,13.26H742.1a19.26,19.26,0,0,1-.15-2.91s0-.67,0-1.94,0-2.91,0-4.9,0-3.89,0-5.67H725.07v2.16c0,8.07.2,12.5.57,13.26H720.1q.09-3.33.1-26.65a20.75,20.75,0,0,0-.13-2.42,6.5,6.5,0,0,0-.32-1.52c-.13-.33-.27-.65-.41-.93a3.49,3.49,0,0,0-.44-.68l.34-.85,1.13-.33a9.3,9.3,0,0,1,2.35-.31,6.55,6.55,0,0,1,2.85.59q-.37,8.13-.5,15.08H742q0-3.74,0-8.63a21,21,0,0,0-.12-2.42,7,7,0,0,0-.33-1.52,7.25,7.25,0,0,0-.42-.93,4.83,4.83,0,0,0-.43-.68l.34-.85.42-.15a6.66,6.66,0,0,1,1.3-.33,9,9,0,0,1,1.71-.16,7.06,7.06,0,0,1,2.9.59Q746.93,358.33,746.93,366.89Z" fill="#a72c32"/><path d="M766.73,380.15h-5.55q.11-3.33.1-26.72a20.67,20.67,0,0,0-.12-2.41,7.77,7.77,0,0,0-.32-1.51,8.09,8.09,0,0,0-.42-.93,3.24,3.24,0,0,0-.44-.67l.34-.86,1.13-.32a8.51,8.51,0,0,1,2.36-.32,6.61,6.61,0,0,1,2.84.58q-.49,11.29-.49,19.9C766.16,375,766.35,379.39,766.73,380.15Z" fill="#a72c32"/><path d="M785.75,380.15h-5.49v-.81q0-1.54,0-5.94c0-2.93,0-5.14,0-6.61,0-1,0-2.36,0-4.12s0-3.13,0-4.1,0-2.12,0-3.47-.1-2.41-.19-3.2a15.69,15.69,0,0,0-.43-2.29A4.38,4.38,0,0,0,779,348l.34-.85,9.05-.3h.56a17.08,17.08,0,0,1,3.09.27,11.65,11.65,0,0,1,3,1,9,9,0,0,1,2.58,1.85,8.39,8.39,0,0,1,1.76,2.94,11.93,11.93,0,0,1,.69,4.2,9.55,9.55,0,0,1-1.63,5.45,10.92,10.92,0,0,1-4.38,3.76,13.6,13.6,0,0,1-6,1.34,12.42,12.42,0,0,1-2.67-.3Q785.5,378.39,785.75,380.15Zm2.7-15a7.11,7.11,0,0,0,5-1.92,6.56,6.56,0,0,0,2-5,10.78,10.78,0,0,0-.69-4,6.69,6.69,0,0,0-1.82-2.7,7.74,7.74,0,0,0-2.36-1.42,6.64,6.64,0,0,0-2.51-.4l-2.72.1q-.13,1.81-.14,13.41v1.5A7.53,7.53,0,0,0,788.45,365.1Z" fill="#a72c32"/></g></g></svg>